<?xml version="1.0" encoding="utf-8"?>
<!-- Generator: Adobe Illustrator 15.0.0, SVG Export Plug-In . SVG Version: 6.00 Build 0)  -->
<!DOCTYPE svg PUBLIC "-//W3C//DTD SVG 1.1//EN" "http://www.w3.org/Graphics/SVG/1.1/DTD/svg11.dtd">
<svg version="1.1" id="Layer_1" xmlns="http://www.w3.org/2000/svg" xmlns:xlink="http://www.w3.org/1999/xlink" x="0px" y="0px"
	 width="145px" height="50px" viewBox="0 0 145 50" enable-background="new 0 0 145 50" xml:space="preserve">
<path fill="none" stroke="#7C7C7C" stroke-width="0.9998" stroke-miterlimit="10" d="M192.59-148.529
	c0,17.396-14.104,31.5-31.5,31.5s-31.5-14.104-31.5-31.5s14.104-31.5,31.5-31.5C178.484-180.029,192.59-165.925,192.59-148.529z
	 M158.669-169.343h4.841v6.936h-4.841V-169.343z M169.354-149.951c0,4.672-3.787,8.461-8.459,8.461
	c-4.674,0-8.461-3.789-8.461-8.461c0-4.672,3.787-8.46,8.461-8.46C165.564-158.411,169.354-154.623,169.354-149.951z
	 M166.491-143.631c-1.015-0.334-1.97-0.585-3.173-0.884c-0.738-0.191-0.738-0.708-0.738-1.122c0-0.478,0.218-0.92,0.41-1.256
	c0.16-0.295,0.349-0.795,0.393-1.19c0.008-0.087,0.059-0.174,0.143-0.233c0.119-0.089,0.367-0.413,0.525-1.065
	c0.118-0.517,0.066-0.63,0.016-0.741c-0.021-0.047-0.043-0.092-0.06-0.143c-0.103-0.313,0.017-1.339,0.138-1.908
	c0.056-0.25-0.015-0.951-0.565-1.546c-0.498-0.531-1.25-0.827-2.237-0.876h-0.806c-0.957,0.049-1.711,0.345-2.211,0.876
	c-0.554,0.595-0.621,1.296-0.565,1.546c0.123,0.569,0.238,1.595,0.137,1.908c-0.019,0.051-0.039,0.096-0.061,0.143
	c-0.051,0.111-0.104,0.224,0.021,0.741c0.158,0.652,0.398,0.977,0.523,1.065c0.08,0.059,0.133,0.146,0.139,0.233
	c0.045,0.396,0.232,0.895,0.397,1.19c0.237,0.424,0.269,0.929,0.269,1.276c0,0.413,0,0.925-0.731,1.118
	c-1.259,0.31-2.2,0.563-3.158,0.893 M151.343-137.194h19.494 M151.343-132.672h19.494 M165.764-165.405h9.862v37.69h-29.073v-37.69
	h9.863"/>
<path fill="none" stroke="#7C7C7C" stroke-width="1.0001" stroke-miterlimit="10" d="M319.691-141.478l2.729-2.73
	c0.547-0.546,1.439-0.546,1.986,0l7.197,7.198c0.568,0.569,0.568,1.5,0,2.068l-2.689,2.689L319.691-141.478z M296.277-164.891
	l2.729-2.73c0.546-0.546,1.438-0.546,1.986,0l7.196,7.197c0.568,0.569,0.568,1.5,0,2.069l-2.688,2.688L296.277-164.891z
	 M304.074-154.238l-0.161,0.161c-1.462,1.462,1.765,5.332,5.312,8.877c3.547,3.546,7.416,6.773,8.877,5.311l0.162-0.16l9.225,9.225
	c-6.205,5.433-17.146-2.586-23.6-9.039c-6.453-6.453-14.473-17.395-9.039-23.599L304.074-154.238z M344.041-148.529
	c0,17.396-14.104,31.5-31.5,31.5c-17.395,0-31.499-14.104-31.499-31.5s14.104-31.5,31.499-31.5
	C329.938-180.029,344.041-165.925,344.041-148.529z"/>
<path fill="none" stroke="#7C7C7C" stroke-width="1.0001" d="M104-234.247c0,17.396-14.104,31.5-31.5,31.5
	c-17.396,0-31.5-14.104-31.5-31.5s14.104-31.5,31.5-31.5C89.896-265.747,104-251.643,104-234.247z M93.342-210.719
	c-3.771-1.244-7.326-2.178-11.813-3.292c-2.745-0.711-2.745-2.634-2.745-4.177c0-1.774,0.81-3.427,1.522-4.676
	c0.598-1.1,1.299-2.958,1.463-4.431c0.024-0.324,0.221-0.648,0.533-0.87c0.441-0.329,1.363-1.538,1.954-3.966
	c0.438-1.923,0.248-2.345,0.06-2.758c-0.082-0.174-0.162-0.341-0.223-0.533c-0.379-1.165,0.059-4.984,0.51-7.104
	c0.207-0.93-0.053-3.54-2.106-5.755c-1.853-1.975-4.649-3.077-8.329-3.262H71.17c-3.565,0.185-6.372,1.287-8.233,3.262
	c-2.058,2.215-2.311,4.825-2.105,5.755c0.46,2.119,0.886,5.938,0.506,7.104c-0.064,0.192-0.143,0.359-0.223,0.533
	c-0.188,0.413-0.381,0.835,0.08,2.758c0.588,2.428,1.489,3.637,1.952,3.966c0.301,0.222,0.492,0.546,0.519,0.87
	c0.161,1.473,0.864,3.331,1.479,4.431c0.886,1.579,1,3.459,1,4.752c0,1.536,0,3.444-2.727,4.16
	c-4.682,1.153-8.191,2.097-11.758,3.323"/>
<path fill="none" stroke="#7C7C7C" stroke-width="1.0001" stroke-miterlimit="10" d="M268.314-148.529
	c0,17.396-14.104,31.5-31.5,31.5c-17.396,0-31.5-14.104-31.5-31.5s14.104-31.5,31.5-31.5
	C254.212-180.029,268.314-165.925,268.314-148.529z M240.402-134.926c0,1.98-1.606,3.586-3.588,3.586
	c-1.98,0-3.586-1.605-3.586-3.586c0-1.981,1.605-3.586,3.586-3.586C238.796-138.512,240.402-136.907,240.402-134.926z
	 M240.402-167.106c0,1.98-1.606,3.586-3.588,3.586c-1.98,0-3.586-1.606-3.586-3.586s1.605-3.586,3.586-3.586
	C238.796-170.692,240.402-169.087,240.402-167.106z M236.814-163.521v25.008 M253.7-138.513v-9.713c0-2.386-1.951-4.338-4.339-4.338
	H224.27c-2.387,0-4.338,1.952-4.338,4.338v9.713 M257.286-134.926c0,1.98-1.604,3.586-3.586,3.586s-3.587-1.605-3.587-3.586
	c0-1.981,1.605-3.586,3.587-3.586S257.286-136.907,257.286-134.926z M223.518-134.926c0,1.98-1.604,3.586-3.586,3.586
	c-1.98,0-3.586-1.605-3.586-3.586c0-1.981,1.605-3.586,3.586-3.586C221.913-138.512,223.518-136.907,223.518-134.926z"/>
<path fill="none" stroke="#7C7C7C" stroke-width="0.9998" stroke-miterlimit="10" d="M392.57-140.332h3.643v1.686h-3.643V-140.332z
	 M380.322-140.332h3.643v1.686h-3.643V-140.332z M386.447-140.332h3.643v1.686h-3.643V-140.332z M392.57-144.064h3.643v1.687h-3.643
	V-144.064z M380.322-144.064h3.643v1.687h-3.643V-144.064z M386.447-144.064h3.643v1.687h-3.643V-144.064z M392.57-147.797h3.643
	v1.687h-3.643V-147.797z M380.322-147.797h3.643v1.687h-3.643V-147.797z M386.447-147.797h3.643v1.687h-3.643V-147.797z
	 M419.768-148.529c0,17.396-14.104,31.5-31.5,31.5s-31.5-14.104-31.5-31.5s14.104-31.5,31.5-31.5S419.768-165.925,419.768-148.529z
	 M400.205-154.393c0-3.04-9.887-3.671-11.922-3.671c-2.037,0-11.924,0.632-11.924,3.671v3.01c0,0.779-0.641,1.419-1.42,1.419h-9.395
	c-0.813,0-0.588-0.666-0.588-1.479v-2.951c0-8.215,17.598-8.622,23.324-8.622c5.729,0,23.324,0.409,23.324,8.622v3.01
	c0,0.779-0.641,1.419-1.42,1.419h-8.504c-0.813,0-1.479-0.665-1.479-1.478v-2.95H400.205z M371.088-132.35v-4.347
	c0-2.716,1.273-4.265,2.174-5.393l6.27-7.859v-4.097h5.227v3.302h7.021v-3.302h5.227v4.097l6.271,7.859
	c0.898,1.127,2.172,2.676,2.172,5.393v4.347H371.088z"/>
<circle fill="none" stroke="#7C7C7C" stroke-width="1.0001" cx="-49.708" cy="-148.529" r="16.5"/>
<path fill="none" stroke="#7C7C7C" stroke-width="1.0001" stroke-miterlimit="10" d="M-54.692-142.428h9.969v-2.44h-9.969V-142.428z
	 M-54.692-147.309h3.457v-2.44h-3.457V-147.309z M-54.928-152.189h10.44 M-54.928-154.629h10.44 M-49.088-147.309h4.6
	 M-49.088-149.749h4.6 M-41.851-157.599v18.141h-15.688l-0.026-18.138L-41.851-157.599z"/>
<circle fill="none" stroke="#7C7C7C" stroke-width="1.0001" cx="-88.948" cy="-148.529" r="16.5"/>
<polygon fill="none" stroke="#7C7C7C" stroke-width="1.0001" stroke-miterlimit="10" points="-81.09,-157.599 -81.09,-139.458 
	-96.779,-139.458 -96.805,-157.596 "/>
<line fill="none" stroke="#7C7C7C" stroke-width="0.981" stroke-miterlimit="10" x1="-92.863" y1="-144.869" x2="-83.688" y2="-144.869"/>
<line fill="none" stroke="#7C7C7C" stroke-width="0.981" stroke-miterlimit="10" x1="-92.863" y1="-142.428" x2="-83.688" y2="-142.428"/>
<line fill="none" stroke="#7C7C7C" stroke-width="0.981" stroke-miterlimit="10" x1="-92.863" y1="-149.749" x2="-83.688" y2="-149.749"/>
<line fill="none" stroke="#7C7C7C" stroke-width="0.981" stroke-miterlimit="10" x1="-92.863" y1="-147.309" x2="-83.688" y2="-147.309"/>
<line fill="none" stroke="#7C7C7C" stroke-width="0.981" stroke-miterlimit="10" x1="-92.863" y1="-154.629" x2="-83.688" y2="-154.629"/>
<line fill="none" stroke="#7C7C7C" stroke-width="0.981" stroke-miterlimit="10" x1="-92.863" y1="-152.189" x2="-83.688" y2="-152.189"/>
<circle fill="#7C7C7C" cx="-94.127" cy="-149.749" r="0.355"/>
<circle fill="none" stroke="#7C7C7C" stroke-width="0.7498" cx="-94.127" cy="-149.749" r="0.355"/>
<circle fill="#7C7C7C" cx="-94.127" cy="-147.309" r="0.355"/>
<circle fill="none" stroke="#7C7C7C" stroke-width="0.7498" cx="-94.127" cy="-147.309" r="0.355"/>
<circle fill="#7C7C7C" cx="-94.127" cy="-154.629" r="0.355"/>
<circle fill="none" stroke="#7C7C7C" stroke-width="0.7498" cx="-94.127" cy="-154.629" r="0.355"/>
<circle fill="#7C7C7C" cx="-94.127" cy="-152.189" r="0.355"/>
<circle fill="none" stroke="#7C7C7C" stroke-width="0.7498" cx="-94.127" cy="-152.189" r="0.355"/>
<circle fill="#7C7C7C" cx="-94.127" cy="-144.868" r="0.355"/>
<circle fill="none" stroke="#7C7C7C" stroke-width="0.7498" cx="-94.127" cy="-144.868" r="0.355"/>
<circle fill="#7C7C7C" cx="-94.127" cy="-142.428" r="0.355"/>
<circle fill="none" stroke="#7C7C7C" stroke-width="0.7498" cx="-94.127" cy="-142.428" r="0.355"/>
<circle fill="none" stroke="#7C7C7C" stroke-width="1.0001" cx="-127.724" cy="-148.529" r="16.5"/>
<polyline fill="none" stroke="#7C7C7C" stroke-width="1.0001" stroke-miterlimit="10" points="-134.353,-143.175 -136.771,-143.175 
	-136.792,-158.519 -123.498,-158.521 -123.498,-156.202 "/>
<polyline fill="none" stroke="#7C7C7C" stroke-width="1.0001" stroke-miterlimit="10" points="-131.932,-140.855 -134.35,-140.855 
	-134.371,-156.199 -121.078,-156.202 -121.078,-153.882 "/>
<polygon fill="none" stroke="#7C7C7C" stroke-width="1.0001" stroke-miterlimit="10" points="-118.656,-153.883 -118.656,-138.537 
	-131.929,-138.537 -131.95,-153.88 "/>
<line fill="none" stroke="#7C7C7C" stroke-width="0.9881" stroke-miterlimit="10" x1="-128.564" y1="-143.113" x2="-120.854" y2="-143.113"/>
<line fill="none" stroke="#7C7C7C" stroke-width="0.9881" stroke-miterlimit="10" x1="-128.564" y1="-141.048" x2="-120.854" y2="-141.048"/>
<line fill="none" stroke="#7C7C7C" stroke-width="0.9881" stroke-miterlimit="10" x1="-128.564" y1="-147.242" x2="-120.854" y2="-147.242"/>
<line fill="none" stroke="#7C7C7C" stroke-width="0.9881" stroke-miterlimit="10" x1="-128.564" y1="-145.177" x2="-120.854" y2="-145.177"/>
<line fill="none" stroke="#7C7C7C" stroke-width="0.9881" stroke-miterlimit="10" x1="-128.564" y1="-151.371" x2="-120.854" y2="-151.371"/>
<line fill="none" stroke="#7C7C7C" stroke-width="0.9881" stroke-miterlimit="10" x1="-128.564" y1="-149.306" x2="-120.854" y2="-149.306"/>
<circle fill="#7C7C7C" cx="-129.685" cy="-147.242" r="0.3"/>
<circle fill="none" stroke="#7C7C7C" stroke-width="0.7498" cx="-129.685" cy="-147.242" r="0.3"/>
<circle fill="#7C7C7C" cx="-129.685" cy="-145.177" r="0.3"/>
<circle fill="none" stroke="#7C7C7C" stroke-width="0.7498" cx="-129.685" cy="-145.177" r="0.3"/>
<circle fill="#7C7C7C" cx="-129.685" cy="-151.371" r="0.3"/>
<circle fill="none" stroke="#7C7C7C" stroke-width="0.7498" cx="-129.685" cy="-151.371" r="0.3"/>
<circle fill="#7C7C7C" cx="-129.685" cy="-149.306" r="0.3"/>
<circle fill="none" stroke="#7C7C7C" stroke-width="0.7498" cx="-129.685" cy="-149.306" r="0.3"/>
<circle fill="#7C7C7C" cx="-129.685" cy="-143.113" r="0.3"/>
<circle fill="none" stroke="#7C7C7C" stroke-width="0.7498" cx="-129.685" cy="-143.113" r="0.3"/>
<circle fill="#7C7C7C" cx="-129.685" cy="-141.048" r="0.3"/>
<circle fill="none" stroke="#7C7C7C" stroke-width="0.7498" cx="-129.685" cy="-141.048" r="0.3"/>
<rect x="-211.25" y="1" fill="#B3B3B3" width="173" height="48"/>
<rect x="-211.25" y="1" fill="none" stroke="#000000" stroke-width="1.9998" stroke-miterlimit="2.6131" width="173" height="48"/>
<polygon fill="none" stroke="#009655" stroke-width="2.0001" stroke-miterlimit="2.6131" points="1,89.05 120,89.05 143.568,113.05 
	120,137.05 1,137.05 "/>
<polyline fill="none" stroke="#009655" stroke-width="2.0001" stroke-miterlimit="2.6131" points="188.5,89.05 307.5,89.05 
	331.068,113.05 307.5,137.05 188.5,137.05 "/>
<polygon fill="none" stroke="#4BCB81" stroke-width="2.0001" stroke-miterlimit="2.6131" points="1,1 120,1 143.568,25 120,49 1,49 
	"/>
<polyline fill="none" stroke="#0081BA" stroke-width="2.0001" stroke-miterlimit="2.6131" points="188.5,162.05 307.5,162.05 
	331.068,186.05 307.5,210.05 188.5,210.05 "/>
<polygon fill="none" stroke="#777777" stroke-width="2.0001" stroke-miterlimit="2.6131" points="1,232.029 120,232.029 
	143.568,256.029 120,280.029 1,280.029 "/>
<polyline fill="none" stroke="#777777" stroke-width="2.0001" stroke-miterlimit="2.6131" points="188.5,232.029 307.5,232.029 
	331.068,256.029 307.5,280.029 188.5,280.029 "/>
</svg>
